<svg id="Capa_1" enable-background="new 0 0 511.829 511.829" height="512" viewBox="0 0 511.829 511.829" width="512" xmlns="http://www.w3.org/2000/svg"><g><path d="m323.626 211.475 20.234-72.53c1.854-6.647 4.645-12.995 8.289-18.855l9.064-14.574c9.706-15.607-3.636-35.342-21.736-32.15l-4.029.711c-19.014 3.353-35.986 13.949-47.347 29.559l-22.287 30.622-31.716 40.798 72.44 118.283z" fill="#ffefe7"/><g><g><path d="m360.019 81.355.008.001c-4.498-5.88-11.994-9.499-20.55-7.99l-4.029.71c-19.013 3.352-35.985 13.948-47.346 29.557l-22.289 30.625-31.716 40.798 72.44 118.283 17.09-81.865 6.618-23.724c-8.201-11.04-16.536-22.259-24.759-33.327-7.371-9.92-7.438-23.48-.165-33.472l7.311-10.046c11.368-15.619 28.358-26.214 47.387-29.55z" fill="#ffe0d1"/></g><g><g id="XMLID_147_"><path d="m414.25 379.842c3.051-24.865-3.518-49.957-18.363-70.136 0 0-169.117-227.655-183.061-246.318-10.232-13.695-29.629-16.489-43.436-6.151l-.624.467c-13.295 9.952-15.998 28.801-6.035 42.088l67.803 90.429c-10.438-12.557-29.005-14.855-42.224-4.957-13.648 10.218-16.427 29.565-6.209 43.213l6.773 9.046c-10.218-13.646-29.565-16.426-43.212-6.208-13.648 10.218-16.427 29.565-6.209 43.213l12.792 17.084c-10.219-13.646-29.565-16.426-43.212-6.208-13.648 10.218-16.427 29.565-6.209 43.213l36.753 49.088 42.913 61.615c9.381 13.47 21.7 24.638 36.071 32.704l13.473 7.561 6.076 18c1.36 4.03 5.139 6.742 9.392 6.742h160.521c3.402 0 5.997-3.041 5.463-6.4l-7.745-48.734z" fill="#ffefe7"/><path d="m275.811 250.631c12.627-10.111 14.95-28.419 5.247-41.362l-95.671-127.617c-6.718-8.958-7.668-20.446-3.499-30.034-4.386.893-8.657 2.749-12.497 5.624l-.62.46c-13.3 9.96-16 28.81-6.04 42.09z" fill="#ffe0d1"/></g><path d="m267.093 55.34-18.211-18.211c-6.764-6.764-6.764-17.73 0-24.494l.073-.073c6.764-6.764 17.73-6.764 24.494 0 .423.423 1.109.423 1.532 0 6.764-6.764 17.73-6.764 24.494 0 6.793 6.793 6.76 17.815-.073 24.567l-18.472 18.252c-3.838 3.794-10.021 3.776-13.837-.041z" fill="#e5827f"/></g><g><path d="m183.727 230.653 5.114 6.829c-.011-.014-.022-.027-.033-.041l42.122 55.737 5.32-4.125c5.159-4 8.54-9.867 9.415-16.337.88-6.509-.849-13.101-4.809-18.341l-35.723-47.268c-4.16-5.55-6.16-12.04-6.16-18.48 0-2.979.428-5.962 1.277-8.821-4.203.909-8.272 2.706-11.939 5.456-13.644 10.216-16.427 29.553-6.222 43.202z" fill="#ffe0d1"/></g><g><path d="m184.309 336.194 5.158-4c5.237-4.061 8.669-10.016 9.557-16.583.868-6.425-.766-12.938-4.566-18.191l-31.299-43.272c-4.16-5.55-6.16-12.04-6.16-18.48 0-3.395.568-6.798 1.667-10.019-4.575.822-9.03 2.691-13.005 5.663-13.65 10.22-16.43 29.57-6.21 43.22z" fill="#ffe0d1"/></g></g><path d="m256.982 461.758c-.4-1.17-1.21-2.16-2.29-2.77l-6.02-3.45c-18.55-10.64-34.52-25.25-46.75-42.79l-40.09-57.45-38.14-50.95c-4.16-5.55-6.16-12.04-6.16-18.48 0-1.71.153-3.417.436-5.103-3.131 1.021-6.153 2.555-8.936 4.639-13.648 10.218-16.427 29.565-6.209 43.213l36.753 49.088 42.913 61.615c9.381 13.47 21.7 24.638 36.071 32.704l13.473 7.561 6.076 18c1.36 4.03 5.139 6.742 9.392 6.742h25.117z" fill="#ffe0d1"/><g><path d="m406.806 378.928-.961 7.835c-.504 4.11 2.419 7.853 6.531 8.357.311.038.618.057.923.057 3.734 0 6.968-2.786 7.435-6.588l.961-7.834c3.297-26.873-3.723-53.684-19.766-75.493l-70.096-95.289 19.253-69.011c1.664-5.964 4.165-11.652 7.434-16.909l9.063-14.574c6.075-9.769 5.847-21.757-.596-31.286-6.443-9.53-17.479-14.213-28.812-12.211l-4.029.711c-21.034 3.71-39.54 15.263-52.108 32.532l-16.299 22.394c-17.183-22.964-34.435-46.03-46.904-62.718-6.14-8.219-15.111-13.551-25.26-15.015-10.201-1.471-20.386 1.139-28.679 7.348l-.624.467c-8.034 6.016-13.243 14.8-14.667 24.735-1.424 9.936 1.107 19.829 7.128 27.859l46.701 62.286c-8.149-.095-16.389 2.379-23.402 7.629-13.766 10.308-18.629 28.156-13.159 43.571-8.887-.636-18.032 1.784-25.708 7.53-14.599 10.932-19.175 30.341-12.041 46.338-8.763-.342-17.309 2.3-24.425 7.628-16.936 12.68-20.398 36.774-7.733 53.69l34.079 45.856 33.13 47.484c1.458 2.09 3.789 3.209 6.157 3.209 1.481 0 2.978-.438 4.285-1.351 3.397-2.37 4.229-7.045 1.859-10.442l-33.194-47.575c-.043-.061-34.293-46.15-34.293-46.15-3.742-4.997-5.313-11.152-4.425-17.331s4.129-11.642 9.126-15.383c4.997-3.743 11.152-5.314 17.331-4.426 5.194.746 9.868 3.173 13.444 6.878l36.07 48.174c2.471 3.324 7.169 4.018 10.493 1.546 3.325-2.471 4.017-7.169 1.546-10.493l-47.119-62.932c-7.723-10.315-5.614-24.99 4.701-32.714 10.312-7.72 24.982-5.617 32.706 4.691l42.791 57.151c2.482 3.315 7.183 3.991 10.499 1.509s3.991-7.184 1.509-10.499l-53.339-71.239c-7.723-10.315-5.614-24.99 4.701-32.714 9.94-7.441 23.926-5.752 31.842 3.61l48.945 65.296c2.483 3.315 7.183 3.99 10.499 1.509 3.316-2.482 3.991-7.184 1.508-10.499l-113.083-150.836c-3.616-4.823-5.137-10.766-4.281-16.733.855-5.967 3.984-11.243 8.809-14.855l.624-.467c5.083-3.808 11.315-5.406 17.548-4.509 6.18.892 11.644 4.14 15.384 9.146 13.899 18.602 61.346 82.017 65.302 87.303 2.48 3.314 7.181 3.992 10.498 1.511 3.316-2.482 3.993-7.183 1.511-10.499-2.946-3.936-5.951-7.952-8.986-12.007l19.022-26.135c10.271-14.112 25.396-23.555 42.586-26.587l4.028-.711c5.498-.967 10.651 1.213 13.78 5.841 3.128 4.627 3.234 10.221.285 14.963l-9.063 14.574c-4.022 6.467-7.099 13.465-9.145 20.8l-16.139 57.85-17.19-22.963c-2.482-3.317-7.184-3.994-10.499-1.51-3.316 2.481-3.992 7.183-1.51 10.498l98.547 133.346c13.767 18.712 19.79 41.717 16.961 64.776z"/><path d="m413.313 449.059 3.525-28.727c.504-4.111-2.419-7.853-6.531-8.357-4.113-.5-7.853 2.42-8.358 6.531l-3.653 29.774c-.085.695-.073 1.398.037 2.09l8.762 55.134c.587 3.692 3.774 6.324 7.398 6.324.391 0 .788-.03 1.187-.094 4.091-.65 6.88-4.493 6.23-8.584z"/><path d="m239.373 478.446c-.997-2.883-3.003-5.306-5.648-6.821l-6.02-3.451c-12.079-6.925-23-15.614-32.459-25.828-2.814-3.039-7.56-3.221-10.599-.406-3.039 2.814-3.221 7.561-.406 10.6 10.492 11.328 22.605 20.967 36.003 28.648l5.244 3.006 7.807 22.585c1.073 3.104 3.979 5.052 7.088 5.052.812 0 1.64-.133 2.451-.413 3.915-1.354 5.992-5.624 4.638-9.539z"/><path d="m261.789 60.643c0 .001 0 .001 0 0 3.369 3.369 7.806 5.055 12.244 5.055 4.402 0 8.808-1.66 12.169-4.981l18.472-18.252c4.736-4.68 7.355-10.924 7.375-17.582.02-6.657-2.562-12.916-7.27-17.624-8.28-8.279-21.003-9.476-30.564-3.588-9.564-5.888-22.284-4.69-30.563 3.588l-.073.073c-4.688 4.688-7.27 10.921-7.27 17.551s2.582 12.862 7.27 17.551zm-7.604-42.704.073-.073c3.829-3.83 10.06-3.828 13.888 0 3.345 3.344 8.789 3.347 12.138 0 1.854-1.855 4.321-2.876 6.944-2.876s5.089 1.021 6.944 2.876c1.863 1.862 2.884 4.339 2.876 6.973s-1.044 5.104-2.917 6.956l-18.471 18.251c-.903.892-2.366.887-3.264-.01l-18.21-18.211c-1.855-1.854-2.876-4.32-2.876-6.943s1.02-5.089 2.875-6.943z"/></g></g></svg>