<svg width="372" height="100" viewBox="0 0 372 100" fill="none" xmlns="http://www.w3.org/2000/svg">
<path d="M127.65 70.35C127.65 70.95 127.067 71.25 125.9 71.25C124.733 71.25 124.033 70.8667 123.8 70.1L120.25 57.2C119.95 56.0333 119.533 55.3 119 55C118.467 54.6667 117.3 54.5 115.5 54.5H112.2C111.533 54.5 111.2 53.9167 111.2 52.75C111.2 51.5833 111.533 51 112.2 51H113.45C115.75 51 117.2 50.85 117.8 50.55C118.433 50.25 118.9 49.5 119.2 48.3L122.8 34.9C123.033 34.1333 123.733 33.75 124.9 33.75C126.067 33.75 126.65 34.05 126.65 34.65L123.05 48.3C122.617 49.9 121.933 51.05 121 51.75C122.233 52.35 123.133 53.7 123.7 55.8C126.333 65.4 127.65 70.25 127.65 70.35ZM109.5 34.9V70.1C109.5 70.8667 108.833 71.25 107.5 71.25C106.167 71.25 105.5 70.8667 105.5 70.1V34.9C105.5 34.1333 106.167 33.75 107.5 33.75C108.833 33.75 109.5 34.1333 109.5 34.9ZM134.213 53.05H150.463C151.13 53.05 151.463 53.6333 151.463 54.8C151.463 55.9667 151.13 56.55 150.463 56.55H134.213C133.546 56.55 133.213 55.9667 133.213 54.8C133.213 53.6333 133.546 53.05 134.213 53.05ZM183.655 64.35C183.822 65.7167 184.205 66.7167 184.805 67.35C185.405 67.95 186.388 68.25 187.755 68.25C189.155 68.25 190.122 67.95 190.655 67.35C191.188 66.75 191.555 65.75 191.755 64.35L195.655 34.9C195.755 34.1333 196.438 33.75 197.705 33.75C199.005 33.75 199.655 34.0833 199.655 34.75L195.655 64.9C195.355 67.3333 194.638 69.0833 193.505 70.15C192.372 71.2167 190.455 71.75 187.755 71.75C185.088 71.75 183.172 71.2167 182.005 70.15C180.838 69.05 180.155 67.3 179.955 64.9L178.805 52.6H178.305L177.155 64.9C176.922 67.3 176.222 69.05 175.055 70.15C173.922 71.2167 172.005 71.75 169.305 71.75C166.638 71.75 164.738 71.2167 163.605 70.15C162.472 69.0833 161.755 67.3333 161.455 64.9L157.455 34.65C157.455 34.05 158.088 33.75 159.355 33.75C160.655 33.75 161.355 34.1333 161.455 34.9L165.355 64.35C165.555 65.75 165.905 66.75 166.405 67.35C166.938 67.95 167.905 68.25 169.305 68.25C170.705 68.25 171.688 67.95 172.255 67.35C172.855 66.7167 173.255 65.7167 173.455 64.35L176.555 39.45C176.655 38.6833 177.322 38.3 178.555 38.3C179.788 38.3 180.455 38.6833 180.555 39.45L183.655 64.35ZM231.324 41.15V63.85C231.324 66.6167 230.24 68.6333 228.074 69.9C225.94 71.1333 223.107 71.75 219.574 71.75C211.974 71.75 208.174 69.1167 208.174 63.85V41.15C208.174 38.3833 209.24 36.3833 211.374 35.15C213.54 33.8833 216.39 33.25 219.924 33.25C227.524 33.25 231.324 35.8833 231.324 41.15ZM212.174 40.65V64.35C212.174 66.95 214.69 68.25 219.724 68.25C224.79 68.25 227.324 66.95 227.324 64.35V40.65C227.324 38.05 224.79 36.75 219.724 36.75C214.69 36.75 212.174 38.05 212.174 40.65ZM248.328 52.5H252.678C257.211 52.5 259.478 51.2 259.478 48.6V40.65C259.478 38.05 257.195 36.75 252.628 36.75C248.095 36.75 245.828 38.05 245.828 40.65V70.1C245.828 70.8667 245.161 71.25 243.828 71.25C242.495 71.25 241.828 70.8667 241.828 70.1V41.15C241.828 38.3833 242.811 36.3833 244.778 35.15C246.745 33.8833 249.361 33.25 252.628 33.25C255.895 33.25 258.511 33.8833 260.478 35.15C262.478 36.3833 263.478 38.3833 263.478 41.15V48.1C263.478 51.2 262.028 53.1333 259.128 53.9C259.895 54.6 260.495 55.7333 260.928 57.3C263.295 65.8 264.478 70.15 264.478 70.35C264.478 70.95 263.895 71.25 262.728 71.25C261.561 71.25 260.861 70.8667 260.628 70.1L257.478 58.7C257.178 57.5333 256.761 56.8 256.228 56.5C255.695 56.1667 254.528 56 252.728 56H248.328C247.661 56 247.328 55.4167 247.328 54.25C247.328 53.0833 247.661 52.5 248.328 52.5ZM281.906 67.5H290.006C290.673 67.5 291.006 68.0833 291.006 69.25C291.006 70.4167 290.673 71 290.006 71H281.906C279.039 71 277.006 70.3167 275.806 68.95C274.606 67.55 274.006 65.3 274.006 62.2V34.9C274.006 34.1333 274.673 33.75 276.006 33.75C277.339 33.75 278.006 34.1333 278.006 34.9V62.2C278.006 64.1333 278.289 65.5 278.856 66.3C279.456 67.1 280.473 67.5 281.906 67.5ZM301.004 67.5H310.404C312.537 67.5 314.021 67.2167 314.854 66.65C315.721 66.0833 316.154 65.0667 316.154 63.6V41.4C316.154 39.9333 315.721 38.9167 314.854 38.35C314.021 37.7833 312.537 37.5 310.404 37.5H301.004V67.5ZM297.004 67.25V37.75C297.004 36.2833 297.171 35.3 297.504 34.8C297.871 34.2667 298.704 34 300.004 34H310.404C313.737 34 316.187 34.6 317.754 35.8C319.354 37 320.154 39.0333 320.154 41.9V63.1C320.154 65.9667 319.354 68 317.754 69.2C316.187 70.4 313.737 71 310.404 71H300.004C298.704 71 297.871 70.75 297.504 70.25C297.171 69.7167 297.004 68.7167 297.004 67.25Z" fill="#1D1A30"/>
<path d="M73.2809 64.9909C72.3313 62.5606 70.6166 60.3959 69.2125 58.2132C67.6778 55.8325 66.1431 53.4518 64.613 51.071C63.8974 49.9594 63.1818 48.8433 62.4618 47.7362C62.0882 47.1601 61.7192 46.5841 61.3501 46.0035C60.9451 45.369 60.8551 45.3465 61.1971 44.6804C62.4483 42.2412 63.6814 39.7974 64.946 37.3672C66.1476 35.0585 67.6778 32.7542 67.1017 30.036C66.6832 28.0648 65.3556 26.4446 63.5419 25.5985C61.3141 24.5589 58.5914 24.9505 56.7282 26.5481C55.8056 27.3447 55.27 28.3438 54.7255 29.4149C54.1809 30.4725 53.7039 31.9847 52.9208 32.8577C52.1422 32.1152 51.5841 30.8505 50.9946 29.9325C50.3915 28.9919 49.8245 28.0063 49.1539 27.1107C47.3492 24.7119 44.0279 23.8839 41.3141 25.1845C38.8478 26.3636 37.4167 29.1269 37.7812 31.8226C37.9972 33.4248 38.9153 34.6939 39.7659 36.0216C40.864 37.7317 41.9847 39.4284 43.0873 41.1385C43.8073 42.2502 44.5139 43.3753 45.243 44.4824C45.8776 45.4455 46.8497 46.5571 47.2187 47.6192C45.3015 47.5112 43.5508 47.8352 42.0522 49.1313C41.4266 49.6714 40.918 50.3329 40.5535 51.0755C40.108 51.9801 40.1125 52.8937 39.8334 53.8163C38.5598 53.5148 37.4797 53.1772 36.1431 53.4157C35.1305 53.6003 34.1719 54.0278 33.3573 54.6624C31.7731 55.891 31.1115 57.6552 30.9 59.5769C29.8514 59.2663 28.8388 58.9873 27.7137 59.0908C23.3302 59.4913 20.6885 64.3743 22.6552 68.2672C23.8478 70.6299 25.5445 72.8396 26.9801 75.0674C28.5103 77.4481 30.0449 79.8288 31.5751 82.2096C33.0017 84.4238 34.3114 86.998 36.1791 88.8747C37.7992 90.5039 39.8379 91.647 42.0657 92.2005C44.5769 92.8261 47.2907 92.6686 49.6849 91.674C50.0045 91.5435 50.3195 91.395 50.6345 91.2419C52.6598 90.2428 54.568 88.8297 56.4311 87.6101C58.6994 86.1204 60.9946 84.6758 63.2808 83.2087C65.4591 81.809 67.7588 80.4994 69.7795 78.8747C73.8164 75.6209 75.1396 69.7523 73.2809 64.9909ZM54.4239 34.7209C54.8065 33.9603 55.198 33.2043 55.5851 32.4482C55.6121 32.3897 55.6301 32.3222 55.6886 32.2862C55.6886 32.2052 55.7336 32.1467 55.7696 32.0792C56.2151 31.2016 56.6652 30.324 57.1152 29.4464C57.1917 29.2979 57.2592 29.1449 57.3807 29.0279C57.4257 28.9019 57.5158 28.8073 57.5968 28.7038C58.7624 27.2367 60.9766 26.6516 62.8623 27.6462C64.82 28.6813 65.6571 31.0846 64.7345 33.1008C64.4195 33.7893 64.0504 34.4554 63.7039 35.1305C63.6949 35.1485 63.6769 35.1575 63.6679 35.171C63.6454 35.2295 63.6229 35.2925 63.5914 35.351C63.0873 36.3366 62.5788 37.3222 62.0747 38.3078C62.0522 38.3483 62.0252 38.3843 61.9982 38.4203C61.9892 38.4563 61.9802 38.4923 61.9667 38.5238C61.2196 39.9819 60.4726 41.4401 59.721 42.8937C59.6895 42.9522 59.6625 43.0107 59.6265 43.0647C59.604 43.1052 59.5635 43.1052 59.5365 43.0692C59.496 43.0197 59.46 42.9612 59.424 42.9072C57.7633 40.333 56.1071 37.7632 54.4509 35.189C54.2709 34.9144 54.2889 34.9819 54.4239 34.7209ZM67.8848 77.6506C64.532 80.1304 60.8191 82.2231 57.3087 84.4733C55.468 85.6524 53.6364 86.8495 51.7957 88.0331C50.216 89.0457 48.6768 89.9278 46.8092 90.2608C42.8397 90.9629 38.6858 89.1807 36.4671 85.8234C33.9243 81.9755 31.4716 78.0647 28.9738 74.1853C27.6822 72.1826 26.3906 70.1799 25.1034 68.1772C24.0323 66.512 23.6993 64.5363 24.9729 62.8532C26.008 61.485 27.7947 60.891 29.4419 61.3365C31.5031 61.8946 32.3627 63.8703 33.4473 65.5174C34.6939 67.3986 35.7605 69.5048 37.1512 71.2825C37.7092 71.9936 38.8703 72.1511 39.1899 71.0935C39.4644 70.1844 38.3078 69.0053 37.8487 68.2987C36.5751 66.3185 35.297 64.3428 34.0278 62.3626C32.9882 60.7425 32.6822 58.8298 33.8658 57.1781C35.0044 55.594 37.1377 55.0044 38.9333 55.7425C40.8145 56.512 41.7551 58.7443 42.7902 60.3599C43.1458 60.909 43.5013 61.4625 43.8568 62.0116C44.0774 62.3581 44.3024 62.7002 44.5229 63.0467C45.063 63.8883 45.5895 65.1484 46.3456 65.8055C46.9802 66.3545 48.0063 66.0755 48.1638 65.2069C48.3258 64.3248 47.2547 63.2402 46.8092 62.5516C45.5445 60.5849 44.2754 58.6183 43.0108 56.6471C41.9667 55.0224 41.6111 53.1367 42.7902 51.4536C43.9244 49.8379 46.0756 49.2393 47.8938 49.9864C49.7615 50.756 50.6931 52.9702 51.7237 54.5724C52.3582 55.558 53.0018 56.5391 53.6273 57.5292C54.1179 58.3077 54.5905 59.3833 55.252 60.0089C55.8686 60.5895 56.9127 60.3734 57.1107 59.5003C57.3132 58.6183 56.2286 57.5201 55.7831 56.8316C53.2583 52.9252 50.7336 49.0188 48.2088 45.1124C46.2196 42.0341 44.2214 38.9603 42.2322 35.873C40.72 33.5238 38.5373 30.675 40.936 28.0648C42.1017 26.7911 43.9739 26.3456 45.585 26.9667C47.4707 27.6912 48.3753 29.7974 49.4014 31.3951C51.9217 35.3105 54.4374 39.2259 56.9577 43.1367C59.5005 47.0791 62.0207 51.035 64.577 54.9684C65.8236 56.8856 67.0567 58.8163 68.2944 60.738C69.4825 62.5831 70.9046 64.4013 71.5437 66.5255C72.7723 70.5714 71.2917 75.1259 67.8848 77.6506Z" fill="#040404"/>
<path d="M48.0241 23.7489C48.8792 24.4645 49.7658 25.1441 50.6794 25.7786C51.1475 26.1027 51.629 26.4177 52.1106 26.7192C52.3581 26.8722 52.5021 27.0073 52.7811 26.9443C53.0197 26.8902 53.3212 26.5977 53.5282 26.4672C55.3509 25.3196 57.0656 23.9874 58.6272 22.4978C61.512 19.748 64.5544 15.5041 62.5697 11.3771C61.7551 9.67595 60.2564 8.30781 58.4517 7.75425C57.4076 7.43472 56.278 7.38971 55.2069 7.60574C54.6983 7.70925 54.2033 7.87576 53.7352 8.10079C53.3437 8.28981 52.8396 8.78486 52.4616 8.66785C51.9981 8.52383 51.548 8.10079 51.0755 7.91627C50.5894 7.72725 50.0764 7.58773 49.5588 7.52473C49.5453 7.52473 49.5318 7.52023 49.5183 7.52023C48.5282 7.40772 47.5021 7.50673 46.5525 7.83076C44.8108 8.43382 43.3482 9.82447 42.6146 11.5121C40.5489 16.2781 44.6218 20.8911 48.0241 23.7489ZM44.5588 16.0756C44.3563 15.4681 44.2258 14.847 44.2213 14.2034C44.2123 13.2043 44.5003 12.2997 45.0988 11.5031C45.6794 10.7246 46.4175 10.1485 47.3446 9.83797C49.0953 9.25291 50.981 9.81997 52.1421 11.2781C52.2861 11.4626 52.4121 11.6607 52.5471 11.8497C52.5921 11.9127 52.6371 11.9172 52.6776 11.8587C52.7766 11.7192 52.8666 11.5797 52.9657 11.4446C53.5687 10.6391 54.3338 10.054 55.3104 9.78846C56.7415 9.39692 58.0602 9.65795 59.2303 10.576C60.0674 11.2331 60.6434 12.0657 60.8955 13.1098C60.981 13.4608 61.026 13.8524 61.0215 14.2259C61.008 15.027 60.81 15.7831 60.5039 16.5122C60.1034 17.4528 59.5498 18.2943 58.9063 19.0819C58.1457 20.0135 57.2906 20.8506 56.386 21.6427C55.2654 22.6283 54.0773 23.5284 52.8396 24.3565C52.8081 24.379 52.7766 24.397 52.7451 24.4195C52.6506 24.5005 52.5651 24.4825 52.4661 24.415C51.9666 24.082 51.476 23.7399 50.9945 23.3799C49.9278 22.5833 48.8972 21.7417 47.9386 20.8146C47.1466 20.054 46.404 19.2439 45.7694 18.3484C45.2654 17.6463 44.8333 16.9037 44.5588 16.0756Z" fill="#040404"/>
<path d="M61.0169 14.2258C61.0034 15.0269 60.8054 15.7829 60.4994 16.512C60.0988 17.4526 59.5453 18.2942 58.9017 19.0817C58.1412 20.0133 57.2861 20.8504 56.3815 21.6425C55.2609 22.6281 54.0728 23.5282 52.8352 24.3562C52.8037 24.3787 52.7722 24.3967 52.7407 24.4193C52.6462 24.5003 52.5607 24.4823 52.4616 24.4148C51.9621 24.0817 51.4716 23.7397 50.99 23.3797C49.9234 22.5831 48.8928 21.7415 47.9342 20.8144C47.1422 20.0538 46.3996 19.2438 45.765 18.3482C45.2655 17.6416 44.8335 16.899 44.5589 16.071C44.3564 15.4634 44.2259 14.8423 44.2214 14.1988C44.2124 13.1997 44.5004 12.2951 45.099 11.4985C45.6795 10.72 46.4176 10.1439 47.3447 9.83337C49.0953 9.24832 50.981 9.81537 52.1421 11.2735C52.2861 11.458 52.4121 11.656 52.5472 11.8451C52.5922 11.9081 52.6372 11.9126 52.6777 11.8541C52.7767 11.7145 52.8667 11.575 52.9657 11.44C53.5688 10.6344 54.3338 10.0494 55.3104 9.78387C56.7415 9.39233 58.0602 9.65335 59.2303 10.5714C60.0673 11.2285 60.6434 12.0611 60.8954 13.1052C60.9809 13.4652 61.0259 13.8568 61.0169 14.2258Z" fill="#FFAEFD"/>
</svg>
